<?xml version="1.0" encoding="utf-8"?>
<!-- Svg Vector Icons : http://www.onlinewebfonts.com/icon -->
<!DOCTYPE svg PUBLIC "-//W3C//DTD SVG 1.1//EN" "http://www.w3.org/Graphics/SVG/1.1/DTD/svg11.dtd">
<svg version="1.1" xmlns="http://www.w3.org/2000/svg" xmlns:xlink="http://www.w3.org/1999/xlink" x="0px" y="0px" viewBox="0 0 1000 1000" enable-background="new 0 0 1000 1000" xml:space="preserve">
<metadata> Svg Vector Icons : http://www.onlinewebfonts.com/icon </metadata>
<g><g><path d="M151,176.6H30.5c-11.3,0-20.5,9.2-20.5,20.5v74.7c0,11.3,9.2,20.5,20.5,20.5H151L151,176.6L151,176.6z"/><path d="M803,990c11.3,0,20.5-9.2,20.5-20.5V849H707.8v120.5c0,11.3,9.2,20.5,20.5,20.5H803L803,990z"/><path d="M823.4,682.2V197c0-11.3-9.2-20.5-20.5-20.5H317.8v115.7h390v390H823.4z"/><path d="M969.5,707.8H823.4H707.8H292.2V292.2V176.6V30.5c0-11.3-9.2-20.5-20.5-20.5H197c-11.3,0-20.5,9.2-20.5,20.5v146.1v115.7V803c0,11.3,9.2,20.5,20.5,20.5h510.7h115.7h146.1c11.3,0,20.5-9.2,20.5-20.5v-74.7C990,717,980.8,707.8,969.5,707.8z"/></g><g></g><g></g><g></g><g></g><g></g><g></g><g></g><g></g><g></g><g></g><g></g><g></g><g></g><g></g><g></g></g>
</svg>